0
SECTION
2
HEADER
9
$INSUNITS
70
4
9
$ACADVER
1
AC1014
9
$HANDSEED
5
FFFF
0
ENDSEC
0
SECTION
2
TABLES
0
TABLE
2
VPORT
5
8
100
AcDbSymbolTable
0
ENDTAB
0
TABLE
2
LTYPE
5
5
100
AcDbSymbolTable
0
LTYPE
5
14
100
AcDbSymbolTableRecord
100
AcDbLinetypeTableRecord
2
BYBLOCK
70
0
0
LTYPE
5
15
100
AcDbSymbolTableRecord
100
AcDbLinetypeTableRecord
2
BYLAYER
70
0
0
ENDTAB
0
TABLE
2
LAYER
5
2
100
AcDbSymbolTable
70
2
0
LAYER
5
50
100
AcDbSymbolTableRecord
100
AcDbLayerTableRecord
2
0
70
0
6
CONTINUOUS
0
ENDTAB
0
TABLE
2
STYLE
5
3
100
AcDbSymbolTable
70
1
0
STYLE
5
11
100
AcDbSymbolTableRecord
100
AcDbTextStyleTableRecord
2
STANDARD
70
0
0
ENDTAB
0
TABLE
2
VIEW
5
6
100
AcDbSymbolTable
70
0
0
ENDTAB
0
TABLE
2
UCS
5
7
100
AcDbSymbolTable
70
0
0
ENDTAB
0
TABLE
2
APPID
5
9
100
AcDbSymbolTable
70
2
0
APPID
5
12
100
AcDbSymbolTableRecord
100
AcDbRegAppTableRecord
2
ACAD
70
0
0
ENDTAB
0
TABLE
2
DIMSTYLE
5
A
100
AcDbSymbolTable
70
1
0
ENDTAB
0
TABLE
2
BLOCK_RECORD
5
1
100
AcDbSymbolTable
70
1
0
BLOCK_RECORD
5
1F
100
AcDbSymbolTableRecord
100
AcDbBlockTableRecord
2
*MODEL_SPACE
0
BLOCK_RECORD
5
1B
100
AcDbSymbolTableRecord
100
AcDbBlockTableRecord
2
*PAPER_SPACE
0
ENDTAB
0
ENDSEC
0
SECTION
2
BLOCKS
0
BLOCK
5
20
100
AcDbEntity
100
AcDbBlockBegin
2
*MODEL_SPACE
0
ENDBLK
5
21
100
AcDbEntity
100
AcDbBlockEnd
0
BLOCK
5
1C
100
AcDbEntity
100
AcDbBlockBegin
2
*PAPER_SPACE
0
ENDBLK
5
1D
100
AcDbEntity
100
AcDbBlockEnd
0
ENDSEC
0
SECTION
2
ENTITIES
0
LWPOLYLINE
5
100
100
AcDbEntity
8
0
100
AcDbPolyline
90
32
70
1
43
0.0
10
72.500000000000028
20
-54.697808322438
10
73.851180415231312
20
-58.172362996058268
10
82.411537539040566
20
-67.514353497460235
10
82.159404950473458
20
-79.06942644143362
10
79.069426441433592
20
-82.159404950473487
10
67.514353497460206
20
-82.411537539040594
10
58.172362996058176
20
-73.851180415231354
10
54.697808322437929
20
-72.500000000000043
10
-54.697808322438
20
-72.500000000000028
10
-58.172362996058254
20
-73.851180415231312
10
-67.514353497460249
20
-82.411537539040552
10
-79.069426441433635
20
-82.15940495047343
10
-82.159404950473501
20
-79.069426441433578
10
-82.411537539040609
20
-67.514353497460192
10
-73.851180415231354
20
-58.172362996058183
10
-72.500000000000043
20
-54.697808322437922
10
-72.500000000000028
20
54.697808322437993
10
-73.851180415231312
20
58.172362996058254
10
-82.411537539040566
20
67.514353497460235
10
-82.15940495047343
20
79.06942644143362
10
-79.069426441433578
20
82.159404950473501
10
-67.514353497460192
20
82.411537539040594
10
-58.172362996058183
20
73.85118041523134
10
-54.697808322437936
20
72.500000000000028
10
54.697808322437993
20
72.500000000000028
10
58.172362996058247
20
73.851180415231312
10
67.514353497460235
20
82.411537539040566
10
79.06942644143362
20
82.159404950473458
10
82.159404950473487
20
79.069426441433578
10
82.411537539040594
20
67.514353497460192
10
73.85118041523134
20
58.172362996058197
10
72.500000000000028
20
54.69780832243795
0
CIRCLE
5
101
100
AcDbEntity
8
0
100
AcDbCircle
10
70.89056608378857
20
-62.053994060656578
30
0
40
1.6500000000000092
0
CIRCLE
5
102
100
AcDbEntity
8
0
100
AcDbCircle
10
-62.053994060656557
20
-70.890566083788585
30
0
40
1.6500000000000092
0
CIRCLE
5
103
100
AcDbEntity
8
0
100
AcDbCircle
10
-77.961633895654046
20
69.125061872522053
30
0
40
1.6500000000000092
0
CIRCLE
5
104
100
AcDbEntity
8
0
100
AcDbCircle
10
62.051731318956726
20
-70.892828825488422
30
0
40
1.6500000000000092
0
CIRCLE
5
105
100
AcDbEntity
8
0
100
AcDbCircle
10
-77.963896637353884
20
-69.122799130822216
30
0
40
1.6500000000000092
0
CIRCLE
5
106
100
AcDbEntity
8
0
100
AcDbCircle
10
70.892828825488408
20
62.051731318956733
30
0
40
1.6500000000000092
0
CIRCLE
5
107
100
AcDbEntity
8
0
100
AcDbCircle
10
-9.7144514654701197e-16
20
-7.0000000000000018
30
0
40
3.25
0
CIRCLE
5
108
100
AcDbEntity
8
0
100
AcDbCircle
10
77.963896637353884
20
69.122799130822216
30
0
40
1.6500000000000092
0
CIRCLE
5
109
100
AcDbEntity
8
0
100
AcDbCircle
10
69.125061872522039
20
77.96163389565406
30
0
40
1.6500000000000092
0
CIRCLE
5
110
100
AcDbEntity
8
0
100
AcDbCircle
10
62.053994060656564
20
70.89056608378857
30
0
40
1.6500000000000092
0
CIRCLE
5
111
100
AcDbEntity
8
0
100
AcDbCircle
10
-23.874999999989384
20
-47.500000000000206
30
0
40
1.749999999999998
0
CIRCLE
5
112
100
AcDbEntity
8
0
100
AcDbCircle
10
23.87499999999017
20
-47.499999999999723
30
0
40
1.749999999999998
0
CIRCLE
5
113
100
AcDbEntity
8
0
100
AcDbCircle
10
23.874999999989228
20
47.500000000000206
30
0
40
1.749999999999998
0
CIRCLE
5
114
100
AcDbEntity
8
0
100
AcDbCircle
10
-23.874999999990326
20
47.499999999999723
30
0
40
1.749999999999998
0
CIRCLE
5
115
100
AcDbEntity
8
0
100
AcDbCircle
10
7.4306037225928267e-16
20
7.0000000000000018
30
0
40
3.2499999999999929
0
CIRCLE
5
116
100
AcDbEntity
8
0
100
AcDbCircle
10
-62.051731318956726
20
70.892828825488422
30
0
40
1.6500000000000092
0
CIRCLE
5
117
100
AcDbEntity
8
0
100
AcDbCircle
10
-69.122799130822202
20
77.963896637353898
30
0
40
1.6500000000000092
0
CIRCLE
5
118
100
AcDbEntity
8
0
100
AcDbCircle
10
-70.892828825488408
20
-62.05173131895674
30
0
40
1.6500000000000092
0
CIRCLE
5
119
100
AcDbEntity
8
0
100
AcDbCircle
10
69.122799130822202
20
-77.963896637353898
30
0
40
1.6500000000000092
0
CIRCLE
5
120
100
AcDbEntity
8
0
100
AcDbCircle
10
-70.89056608378857
20
62.053994060656578
30
0
40
1.6500000000000092
0
CIRCLE
5
121
100
AcDbEntity
8
0
100
AcDbCircle
10
-69.125061872522039
20
-77.96163389565406
30
0
40
1.6500000000000092
0
CIRCLE
5
122
100
AcDbEntity
8
0
100
AcDbCircle
10
77.961633895654046
20
-69.125061872522053
30
0
40
1.6500000000000092
0
CIRCLE
5
123
100
AcDbEntity
8
0
100
AcDbCircle
10
77.961633895654046
20
-69.125061872522053
30
0
40
1.6500000000000092
0
LWPOLYLINE
5
124
100
AcDbEntity
8
0
100
AcDbPolyline
90
32
70
1
43
0.0
10
82.411537539040566
20
-67.514353497460235
10
73.851180415231312
20
-58.172362996058268
10
72.500000000000028
20
-54.697808322438007
10
72.500000000000028
20
54.697808322437936
10
73.85118041523134
20
58.172362996058197
10
82.411537539040594
20
67.514353497460192
10
82.159404950473487
20
79.069426441433578
10
79.06942644143362
20
82.159404950473458
10
67.514353497460235
20
82.411537539040566
10
58.172362996058247
20
73.851180415231312
10
54.697808322437993
20
72.500000000000028
10
-54.697808322437936
20
72.500000000000028
10
-58.172362996058183
20
73.85118041523134
10
-67.514353497460192
20
82.411537539040594
10
-79.069426441433578
20
82.159404950473501
10
-82.15940495047343
20
79.06942644143362
10
-82.411537539040566
20
67.514353497460235
10
-73.851180415231312
20
58.172362996058254
10
-72.500000000000028
20
54.697808322437986
10
-72.500000000000043
20
-54.697808322437929
10
-73.851180415231354
20
-58.172362996058183
10
-82.411537539040609
20
-67.514353497460192
10
-82.159404950473501
20
-79.069426441433578
10
-79.069426441433635
20
-82.15940495047343
10
-67.514353497460249
20
-82.411537539040552
10
-58.172362996058254
20
-73.851180415231312
10
-54.697808322438
20
-72.500000000000028
10
54.697808322437929
20
-72.500000000000043
10
58.172362996058176
20
-73.851180415231354
10
67.514353497460206
20
-82.411537539040594
10
79.069426441433592
20
-82.159404950473487
10
82.159404950473458
20
-79.06942644143362
0
CIRCLE
5
125
100
AcDbEntity
8
0
100
AcDbCircle
10
-62.053994060656557
20
-70.890566083788585
30
0
40
1.6500000000000092
0
CIRCLE
5
126
100
AcDbEntity
8
0
100
AcDbCircle
10
-77.961633895654046
20
69.125061872522053
30
0
40
1.6500000000000092
0
CIRCLE
5
127
100
AcDbEntity
8
0
100
AcDbCircle
10
-70.89056608378857
20
62.053994060656578
30
0
40
1.6500000000000092
0
CIRCLE
5
128
100
AcDbEntity
8
0
100
AcDbCircle
10
69.122799130822202
20
-77.963896637353898
30
0
40
1.6500000000000092
0
CIRCLE
5
129
100
AcDbEntity
8
0
100
AcDbCircle
10
-70.892828825488408
20
-62.05173131895674
30
0
40
1.6500000000000092
0
CIRCLE
5
130
100
AcDbEntity
8
0
100
AcDbCircle
10
-77.963896637353884
20
-69.122799130822216
30
0
40
1.6500000000000092
0
CIRCLE
5
131
100
AcDbEntity
8
0
100
AcDbCircle
10
-69.122799130822202
20
77.963896637353898
30
0
40
1.6500000000000092
0
CIRCLE
5
132
100
AcDbEntity
8
0
100
AcDbCircle
10
7.4306037225928267e-16
20
7.0000000000000018
30
0
40
3.2499999999999929
0
CIRCLE
5
133
100
AcDbEntity
8
0
100
AcDbCircle
10
-23.874999999990326
20
47.499999999999723
30
0
40
1.749999999999998
0
CIRCLE
5
134
100
AcDbEntity
8
0
100
AcDbCircle
10
23.874999999989228
20
47.500000000000206
30
0
40
1.749999999999998
0
CIRCLE
5
135
100
AcDbEntity
8
0
100
AcDbCircle
10
23.87499999999017
20
-47.499999999999723
30
0
40
1.749999999999998
0
CIRCLE
5
136
100
AcDbEntity
8
0
100
AcDbCircle
10
-23.874999999989384
20
-47.500000000000206
30
0
40
1.749999999999998
0
CIRCLE
5
137
100
AcDbEntity
8
0
100
AcDbCircle
10
62.053994060656564
20
70.89056608378857
30
0
40
1.6500000000000092
0
CIRCLE
5
138
100
AcDbEntity
8
0
100
AcDbCircle
10
69.125061872522039
20
77.96163389565406
30
0
40
1.6500000000000092
0
CIRCLE
5
139
100
AcDbEntity
8
0
100
AcDbCircle
10
77.963896637353884
20
69.122799130822216
30
0
40
1.6500000000000092
0
CIRCLE
5
140
100
AcDbEntity
8
0
100
AcDbCircle
10
-9.7144514654701197e-16
20
-7.0000000000000018
30
0
40
3.25
0
CIRCLE
5
141
100
AcDbEntity
8
0
100
AcDbCircle
10
70.892828825488408
20
62.051731318956733
30
0
40
1.6500000000000092
0
CIRCLE
5
142
100
AcDbEntity
8
0
100
AcDbCircle
10
-62.051731318956726
20
70.892828825488422
30
0
40
1.6500000000000092
0
CIRCLE
5
143
100
AcDbEntity
8
0
100
AcDbCircle
10
62.051731318956726
20
-70.892828825488422
30
0
40
1.6500000000000092
0
CIRCLE
5
144
100
AcDbEntity
8
0
100
AcDbCircle
10
-69.125061872522039
20
-77.96163389565406
30
0
40
1.6500000000000092
0
CIRCLE
5
145
100
AcDbEntity
8
0
100
AcDbCircle
10
70.89056608378857
20
-62.053994060656578
30
0
40
1.6500000000000092
0
ENDSEC
0
SECTION
2
OBJECTS
0
DICTIONARY
5
C
100
AcDbDictionary
3
ACAD_GROUP
350
D
3
ACAD_MLINESTYLE
350
17
0
DICTIONARY
5
D
100
AcDbDictionary
0
DICTIONARY
5
1A
330
C
100
AcDbDictionary
0
DICTIONARY
5
17
100
AcDbDictionary
0
ENDSEC
0
EOF
