0
SECTION
2
HEADER
9
$INSUNITS
70
4
9
$ACADVER
1
AC1014
9
$HANDSEED
5
FFFF
0
ENDSEC
0
SECTION
2
TABLES
0
TABLE
2
VPORT
5
8
100
AcDbSymbolTable
0
ENDTAB
0
TABLE
2
LTYPE
5
5
100
AcDbSymbolTable
0
LTYPE
5
14
100
AcDbSymbolTableRecord
100
AcDbLinetypeTableRecord
2
BYBLOCK
70
0
0
LTYPE
5
15
100
AcDbSymbolTableRecord
100
AcDbLinetypeTableRecord
2
BYLAYER
70
0
0
ENDTAB
0
TABLE
2
LAYER
5
2
100
AcDbSymbolTable
70
2
0
LAYER
5
50
100
AcDbSymbolTableRecord
100
AcDbLayerTableRecord
2
0
70
0
6
CONTINUOUS
0
ENDTAB
0
TABLE
2
STYLE
5
3
100
AcDbSymbolTable
70
1
0
STYLE
5
11
100
AcDbSymbolTableRecord
100
AcDbTextStyleTableRecord
2
STANDARD
70
0
0
ENDTAB
0
TABLE
2
VIEW
5
6
100
AcDbSymbolTable
70
0
0
ENDTAB
0
TABLE
2
UCS
5
7
100
AcDbSymbolTable
70
0
0
ENDTAB
0
TABLE
2
APPID
5
9
100
AcDbSymbolTable
70
2
0
APPID
5
12
100
AcDbSymbolTableRecord
100
AcDbRegAppTableRecord
2
ACAD
70
0
0
ENDTAB
0
TABLE
2
DIMSTYLE
5
A
100
AcDbSymbolTable
70
1
0
ENDTAB
0
TABLE
2
BLOCK_RECORD
5
1
100
AcDbSymbolTable
70
1
0
BLOCK_RECORD
5
1F
100
AcDbSymbolTableRecord
100
AcDbBlockTableRecord
2
*MODEL_SPACE
0
BLOCK_RECORD
5
1B
100
AcDbSymbolTableRecord
100
AcDbBlockTableRecord
2
*PAPER_SPACE
0
ENDTAB
0
ENDSEC
0
SECTION
2
BLOCKS
0
BLOCK
5
20
100
AcDbEntity
100
AcDbBlockBegin
2
*MODEL_SPACE
0
ENDBLK
5
21
100
AcDbEntity
100
AcDbBlockEnd
0
BLOCK
5
1C
100
AcDbEntity
100
AcDbBlockBegin
2
*PAPER_SPACE
0
ENDBLK
5
1D
100
AcDbEntity
100
AcDbBlockEnd
0
ENDSEC
0
SECTION
2
ENTITIES
0
CIRCLE
5
100
100
AcDbEntity
8
0
100
AcDbCircle
10
23.874999999989228
20
47.500000000000206
30
0
40
1.749999999999998
0
CIRCLE
5
101
100
AcDbEntity
8
0
100
AcDbCircle
10
-23.874999999990326
20
47.499999999999723
30
0
40
1.749999999999998
0
CIRCLE
5
102
100
AcDbEntity
8
0
100
AcDbCircle
10
23.87499999999017
20
-47.499999999999723
30
0
40
1.749999999999998
0
CIRCLE
5
103
100
AcDbEntity
8
0
100
AcDbCircle
10
-23.874999999989384
20
-47.500000000000206
30
0
40
1.749999999999998
0
CIRCLE
5
104
100
AcDbEntity
8
0
100
AcDbCircle
10
62.051731318956726
20
-70.892828825488422
30
0
40
1.6500000000000092
0
CIRCLE
5
105
100
AcDbEntity
8
0
100
AcDbCircle
10
-62.051731318956726
20
70.892828825488422
30
0
40
1.6500000000000092
0
CIRCLE
5
106
100
AcDbEntity
8
0
100
AcDbCircle
10
-62.053994060656557
20
-70.890566083788585
30
0
40
1.6500000000000092
0
CIRCLE
5
107
100
AcDbEntity
8
0
100
AcDbCircle
10
70.892828825488408
20
62.051731318956733
30
0
40
1.6500000000000092
0
CIRCLE
5
108
100
AcDbEntity
8
0
100
AcDbCircle
10
69.122799130822202
20
-77.963896637353898
30
0
40
1.6500000000000092
0
CIRCLE
5
109
100
AcDbEntity
8
0
100
AcDbCircle
10
-69.122799130822202
20
77.963896637353898
30
0
40
1.6500000000000092
0
CIRCLE
5
110
100
AcDbEntity
8
0
100
AcDbCircle
10
-69.125061872522039
20
-77.96163389565406
30
0
40
1.6500000000000092
0
CIRCLE
5
111
100
AcDbEntity
8
0
100
AcDbCircle
10
62.053994060656564
20
70.89056608378857
30
0
40
1.6500000000000092
0
CIRCLE
5
112
100
AcDbEntity
8
0
100
AcDbCircle
10
77.961633895654046
20
-69.125061872522053
30
0
40
1.6500000000000092
0
CIRCLE
5
113
100
AcDbEntity
8
0
100
AcDbCircle
10
-77.961633895654046
20
69.125061872522053
30
0
40
1.6500000000000092
0
CIRCLE
5
114
100
AcDbEntity
8
0
100
AcDbCircle
10
-77.963896637353884
20
-69.122799130822216
30
0
40
1.6500000000000092
0
CIRCLE
5
115
100
AcDbEntity
8
0
100
AcDbCircle
10
69.125061872522039
20
77.96163389565406
30
0
40
1.6500000000000092
0
CIRCLE
5
116
100
AcDbEntity
8
0
100
AcDbCircle
10
70.89056608378857
20
-62.053994060656578
30
0
40
1.6500000000000092
0
CIRCLE
5
117
100
AcDbEntity
8
0
100
AcDbCircle
10
-70.89056608378857
20
62.053994060656578
30
0
40
1.6500000000000092
0
CIRCLE
5
118
100
AcDbEntity
8
0
100
AcDbCircle
10
-70.892828825488408
20
-62.05173131895674
30
0
40
1.6500000000000092
0
CIRCLE
5
119
100
AcDbEntity
8
0
100
AcDbCircle
10
77.963896637353884
20
69.122799130822216
30
0
40
1.6500000000000092
0
LWPOLYLINE
5
120
100
AcDbEntity
8
0
100
AcDbPolyline
90
2
70
1
43
0.0
10
1.2499999999999996
20
-4.0000000000000098
42
-4.9999999999999831
10
-1.2500000000000011
20
-4.0000000000000089
0
CIRCLE
5
121
100
AcDbEntity
8
0
100
AcDbCircle
10
7.4306037225928267e-16
20
7.0000000000000018
30
0
40
3.2499999999999929
0
LWPOLYLINE
5
122
100
AcDbEntity
8
0
100
AcDbPolyline
90
32
70
1
43
0.0
10
-81.348889930979055
20
66.354677129141763
42
-0.40149066690601926
10
-81.047184374743267
20
80.181647017163812
10
-80.181647017163783
20
81.04718437474331
42
-0.40149066690602048
10
-66.354677129141734
20
81.348889930979084
10
-59.564923080064631
20
75.12722663189875
42
0.18759656419942283
10
-52.809021003908043
20
72.500000000000028
10
52.809021003908114
20
72.5
42
0.18759656419942267
10
59.564923080064688
20
75.12722663189875
10
66.354677129141791
20
81.348889930979055
42
-0.40149066690602003
10
80.181647017163812
20
81.047184374743253
10
81.04718437474331
20
80.181647017163755
42
-0.4014906669060202
10
81.348889930979084
20
66.354677129141692
10
75.12722663189875
20
59.564923080064631
42
0.18759656419942267
10
72.500000000000043
20
52.809021003908043
10
72.500000000000014
20
-52.809021003908128
42
0.1875965641994225
10
75.12722663189875
20
-59.564923080064709
10
81.348889930979041
20
-66.354677129141763
42
-0.40149066690602209
10
81.047184374743253
20
-80.181647017163812
10
80.181647017163783
20
-81.047184374743296
42
-0.40149066690602186
10
66.354677129141734
20
-81.348889930979084
10
59.564923080064631
20
-75.127226631898736
42
0.18759656419942253
10
52.809021003908043
20
-72.500000000000028
10
-52.809021003908114
20
-72.5
42
0.18759656419942267
10
-59.564923080064688
20
-75.12722663189875
10
-66.354677129141777
20
-81.348889930979013
42
-0.40149066690602048
10
-80.181647017163797
20
-81.047184374743253
10
-81.04718437474331
20
-80.181647017163783
42
-0.4014906669060207
10
-81.348889930979084
20
-66.35467712914172
10
-75.127226631898736
20
-59.564923080064602
42
0.18759656419942242
10
-72.500000000000028
20
-52.809021003908029
10
-72.5
20
52.8090210039081
42
0.1875965641994225
10
-75.127226631898736
20
59.564923080064673
0
CIRCLE
5
123
100
AcDbEntity
8
0
100
AcDbCircle
10
23.874999999989228
20
47.500000000000206
30
0
40
1.749999999999998
0
CIRCLE
5
124
100
AcDbEntity
8
0
100
AcDbCircle
10
-23.874999999990326
20
47.499999999999723
30
0
40
1.749999999999998
0
CIRCLE
5
125
100
AcDbEntity
8
0
100
AcDbCircle
10
23.87499999999017
20
-47.499999999999723
30
0
40
1.749999999999998
0
CIRCLE
5
126
100
AcDbEntity
8
0
100
AcDbCircle
10
-23.874999999989384
20
-47.500000000000206
30
0
40
1.749999999999998
0
CIRCLE
5
127
100
AcDbEntity
8
0
100
AcDbCircle
10
62.051731318956726
20
-70.892828825488422
30
0
40
1.6500000000000092
0
CIRCLE
5
128
100
AcDbEntity
8
0
100
AcDbCircle
10
-62.051731318956726
20
70.892828825488422
30
0
40
1.6500000000000092
0
CIRCLE
5
129
100
AcDbEntity
8
0
100
AcDbCircle
10
-62.053994060656557
20
-70.890566083788585
30
0
40
1.6500000000000092
0
CIRCLE
5
130
100
AcDbEntity
8
0
100
AcDbCircle
10
70.892828825488408
20
62.051731318956733
30
0
40
1.6500000000000092
0
CIRCLE
5
131
100
AcDbEntity
8
0
100
AcDbCircle
10
69.122799130822202
20
-77.963896637353898
30
0
40
1.6500000000000092
0
CIRCLE
5
132
100
AcDbEntity
8
0
100
AcDbCircle
10
-69.122799130822202
20
77.963896637353898
30
0
40
1.6500000000000092
0
CIRCLE
5
133
100
AcDbEntity
8
0
100
AcDbCircle
10
-69.125061872522039
20
-77.96163389565406
30
0
40
1.6500000000000092
0
CIRCLE
5
134
100
AcDbEntity
8
0
100
AcDbCircle
10
62.053994060656564
20
70.89056608378857
30
0
40
1.6500000000000092
0
CIRCLE
5
135
100
AcDbEntity
8
0
100
AcDbCircle
10
77.961633895654046
20
-69.125061872522053
30
0
40
1.6500000000000092
0
CIRCLE
5
136
100
AcDbEntity
8
0
100
AcDbCircle
10
-77.961633895654046
20
69.125061872522053
30
0
40
1.6500000000000092
0
CIRCLE
5
137
100
AcDbEntity
8
0
100
AcDbCircle
10
-77.963896637353884
20
-69.122799130822216
30
0
40
1.6500000000000092
0
CIRCLE
5
138
100
AcDbEntity
8
0
100
AcDbCircle
10
69.125061872522039
20
77.96163389565406
30
0
40
1.6500000000000092
0
CIRCLE
5
139
100
AcDbEntity
8
0
100
AcDbCircle
10
70.89056608378857
20
-62.053994060656578
30
0
40
1.6500000000000092
0
CIRCLE
5
140
100
AcDbEntity
8
0
100
AcDbCircle
10
-70.89056608378857
20
62.053994060656578
30
0
40
1.6500000000000092
0
CIRCLE
5
141
100
AcDbEntity
8
0
100
AcDbCircle
10
-70.892828825488408
20
-62.05173131895674
30
0
40
1.6500000000000092
0
CIRCLE
5
142
100
AcDbEntity
8
0
100
AcDbCircle
10
77.963896637353884
20
69.122799130822216
30
0
40
1.6500000000000092
0
LWPOLYLINE
5
143
100
AcDbEntity
8
0
100
AcDbPolyline
90
2
70
1
43
0.0
10
1.2499999999999984
20
-4.0000000000000089
42
-4.9999999999999831
10
-1.250000000000002
20
-4.0000000000000107
0
CIRCLE
5
144
100
AcDbEntity
8
0
100
AcDbCircle
10
7.4306037225928267e-16
20
7.0000000000000018
30
0
40
3.2499999999999929
0
LWPOLYLINE
5
145
100
AcDbEntity
8
0
100
AcDbPolyline
90
32
70
1
43
0.0
10
-81.348889930979055
20
66.354677129141749
42
-0.40149066690602048
10
-81.047184374743267
20
80.181647017163797
10
-80.181647017163783
20
81.04718437474331
42
-0.40149066690602048
10
-66.354677129141734
20
81.348889930979084
10
-59.564923080064638
20
75.127226631898736
42
0.18759656419942383
10
-52.809021003908043
20
72.5
10
52.809021003908114
20
72.5
42
0.18759656419942145
10
59.564923080064688
20
75.127226631898736
10
66.354677129141763
20
81.348889930979055
42
-0.4014906669060207
10
80.181647017163812
20
81.047184374743253
10
81.04718437474331
20
80.181647017163755
42
-0.40149066690602125
10
81.348889930979084
20
66.354677129141692
10
75.127226631898765
20
59.564923080064617
42
0.18759656419942369
10
72.500000000000014
20
52.809021003908043
10
72.500000000000014
20
-52.809021003908128
42
0.18759656419942353
10
75.12722663189875
20
-59.564923080064709
10
81.348889930979041
20
-66.354677129141763
42
-0.40149066690602103
10
81.047184374743253
20
-80.181647017163812
10
80.181647017163783
20
-81.047184374743296
42
-0.40149066690602087
10
66.354677129141734
20
-81.348889930979084
10
59.564923080064631
20
-75.127226631898736
42
0.18759656419942064
10
52.80902100390805
20
-72.5
10
-52.809021003908107
20
-72.5
42
0.18759656419942172
10
-59.564923080064688
20
-75.127226631898736
10
-66.354677129141763
20
-81.348889930979041
42
-0.40149066690602103
10
-80.181647017163812
20
-81.047184374743267
10
-81.047184374743296
20
-80.181647017163755
42
-0.40149066690602098
10
-81.348889930979084
20
-66.35467712914172
10
-75.127226631898736
20
-59.564923080064602
42
0.18759656419941986
10
-72.5
20
-52.809021003908043
10
-72.500000000000014
20
52.8090210039081
42
0.18759656419942353
10
-75.127226631898736
20
59.564923080064673
0
ENDSEC
0
SECTION
2
OBJECTS
0
DICTIONARY
5
C
100
AcDbDictionary
3
ACAD_GROUP
350
D
3
ACAD_MLINESTYLE
350
17
0
DICTIONARY
5
D
100
AcDbDictionary
0
DICTIONARY
5
1A
330
C
100
AcDbDictionary
0
DICTIONARY
5
17
100
AcDbDictionary
0
ENDSEC
0
EOF
